<svg width="22" height="16" viewBox="0 0 22 16" fill="none" xmlns="http://www.w3.org/2000/svg">
<path d="M14.4512 7.32047C13.3913 7.32047 12.5382 8.26163 12.5382 9.43807C12.5382 10.5884 13.3913 11.5295 14.4512 11.5295C15.537 11.5295 16.3901 10.5884 16.3901 9.43807C16.3901 8.26163 15.537 7.32047 14.4512 7.32047ZM7.60047 7.32047C6.54054 7.32047 5.66157 8.26163 5.66157 9.43807C5.66157 10.5884 6.54054 11.5295 7.60047 11.5295C8.6604 11.5295 9.51351 10.5884 9.51351 9.43807C9.51351 8.26163 8.6604 7.32047 7.60047 7.32047ZM16.2609 16C16.2609 16 15.5887 15.1634 15.02 14.4576C17.5018 13.7517 18.4324 12.1831 18.4324 12.1831C17.6569 12.706 16.9072 13.072 16.2609 13.3073C15.3043 13.6994 14.3995 13.987 13.5206 14.1438C11.7109 14.4837 10.0564 14.4053 8.63455 14.1438C7.54877 13.9347 6.6181 13.621 5.86839 13.3073C5.42891 13.1504 4.96357 12.9413 4.47238 12.6537C4.42068 12.6275 4.36898 12.6014 4.31727 12.5491C4.26557 12.5491 4.23972 12.523 4.21387 12.523C3.87779 12.3138 3.69683 12.1831 3.69683 12.1831C3.69683 12.1831 4.60164 13.6994 7.00588 14.4314C6.43713 15.1634 5.73913 16 5.73913 16C1.57697 15.8693 0 13.0981 0 13.0981C0 6.95447 2.71445 1.98727 2.71445 1.98727C5.42891 -0.0780387 7.98825 0.00039079 7.98825 0.00039079L8.19506 0.209536C4.78261 1.20298 3.23149 2.71928 3.23149 2.71928C3.23149 2.71928 3.64512 2.48399 4.36898 2.17027C6.38543 1.28141 7.9624 1.04612 8.63455 0.967687C8.73796 0.967687 8.84136 0.941544 8.94477 0.915401C10.1081 0.784685 11.4007 0.732399 12.7709 0.889258C14.5546 1.0984 16.4677 1.64741 18.4324 2.71928C18.4324 2.71928 16.9589 1.2814 13.7532 0.287965L14.0118 0.00039079C14.0118 0.00039079 16.5711 -0.0780387 19.2855 1.98727C19.2855 1.98727 22 6.95447 22 13.0981C22 13.0981 20.423 15.8693 16.2609 16Z" fill="black"/>
</svg>
