<svg width="25" height="36" viewBox="0 0 25 36" fill="none" xmlns="http://www.w3.org/2000/svg">
<path fill-rule="evenodd" clip-rule="evenodd" d="M17.1473 35.4179C17.1473 35.4129 17.1473 35.4129 17.1473 35.4179C17.1473 35.4129 17.1423 35.4129 17.1473 35.4179ZM9.82089 35.3775C9.81583 35.3775 9.81583 35.3775 9.82089 35.3775V35.3775ZM24.8229 34.998C24.828 34.998 24.828 34.998 24.8229 34.998C24.828 34.998 24.828 34.998 24.8229 34.998ZM24.7167 34.6084C24.7217 34.6134 24.7217 34.6084 24.7167 34.6084V34.6084ZM17.1625 34.406C17.1676 34.406 17.1676 34.406 17.1625 34.406C17.1676 34.406 17.1676 34.406 17.1625 34.406ZM3.02064 31.9065C3.02064 31.9065 3.02064 31.9014 3.02064 31.9065V31.9014V31.9065ZM17.881 34.6033C17.8759 34.5932 17.8759 34.5932 17.8709 34.5831C17.8709 34.578 17.8658 34.573 17.8608 34.5679L17.8557 34.5628C17.8506 34.5578 17.8405 34.5375 17.8304 34.5224C17.8304 34.5224 17.8304 34.5224 17.8304 34.5173C17.8203 34.5021 17.8203 34.4819 17.8304 34.4667C17.9974 34.153 19.6215 31.0413 19.9352 30.4392C19.9656 30.3835 20.0212 30.3481 20.082 30.3582C20.1022 30.3633 20.1224 30.3633 20.1427 30.3633H20.1579C20.2287 30.3633 20.3046 30.3481 20.3704 30.3178C20.426 30.2975 20.4918 30.3127 20.5323 30.3633C20.9472 30.8895 23.047 33.5307 23.7452 34.406C23.7857 34.4566 23.7958 34.5274 23.7705 34.5881C23.7452 34.6489 23.6895 34.6893 23.6339 34.6893H17.9316C17.9215 34.6893 17.9164 34.6843 17.9114 34.6742C17.9012 34.6489 17.8861 34.6134 17.881 34.6033ZM19.6367 30.1508C19.4799 30.4544 17.8506 33.5711 17.5369 34.1682C17.5066 34.2238 17.4509 34.2542 17.3953 34.2491C17.2789 34.239 17.1575 34.2694 17.0512 34.3352C17.031 34.3503 17.0057 34.3706 16.9955 34.3756C16.9753 34.3908 16.9601 34.406 16.945 34.4212C16.9399 34.4262 16.9348 34.4363 16.9298 34.4414C16.9298 34.4414 16.9298 34.4414 16.9247 34.4465C16.9197 34.4515 16.9146 34.4616 16.9045 34.4667C16.9045 34.4667 16.9045 34.4667 16.9045 34.4718C16.8994 34.4768 16.8944 34.4869 16.8893 34.4971C16.8893 34.4971 16.8893 34.4971 16.8842 34.5072C16.8842 34.5072 16.8842 34.5072 16.8792 34.5122C16.8792 34.5173 16.8691 34.5274 16.8691 34.5274C16.864 34.5325 16.8691 34.5224 16.8589 34.5477C16.8589 34.5477 16.8589 34.5477 16.8539 34.5578L16.8488 34.5628C16.8438 34.5679 16.8336 34.5932 16.8235 34.6134C16.8235 34.6134 16.8185 34.6185 16.8185 34.6236C16.8185 34.6286 16.8185 34.6286 16.8185 34.6286C16.8134 34.6337 16.8134 34.6438 16.8134 34.6438C16.7982 34.6742 16.7679 34.6995 16.7375 34.6995H11.8448C11.7739 34.6995 11.7132 34.6438 11.698 34.5679C11.6829 34.492 11.7183 34.4111 11.779 34.3756C13.6157 33.3688 19.156 30.343 19.5912 30.1052C19.6064 30.0951 19.6266 30.1002 19.6367 30.1154C19.6418 30.1204 19.6468 30.1407 19.6367 30.1508ZM20.0263 28.9516C20.0314 28.9516 20.0314 28.9516 20.0314 28.9516H20.0263ZM10.509 34.2542C10.4584 34.2238 10.4281 34.1682 10.4281 34.1024V31.5726C10.4281 31.5068 10.4635 31.4511 10.5141 31.4208C10.5191 31.4157 10.5242 31.4157 10.5292 31.4157L10.5343 31.4106C10.5748 31.3853 10.6102 31.355 10.6406 31.3196C10.6557 31.2993 10.6709 31.2892 10.6912 31.2538C10.6912 31.2538 10.6912 31.2487 10.6962 31.2487C10.6962 31.2487 10.7063 31.2285 10.7114 31.2285V31.2234C10.7266 31.1981 10.7367 31.1678 10.7367 31.1678C10.7468 31.1425 10.7569 31.1172 10.7569 31.1121C10.762 31.1071 10.762 31.102 10.762 31.0868V31.0818C10.762 31.0818 10.7671 31.0615 10.7721 31.0413C10.7721 31.0362 10.7721 31.0362 10.7721 31.0362C10.7721 31.0312 10.7772 31.0059 10.7772 31.0059C10.7822 30.9907 10.7822 30.9856 10.7822 30.9401V30.935C10.7822 30.9199 10.7923 30.9047 10.8025 30.8946C11.1364 30.6871 15.3764 28.051 16.0342 27.6412C16.0848 27.6108 16.1455 27.6159 16.1911 27.6513C16.2973 27.7272 16.4187 27.7727 16.5452 27.7778H16.5554C16.6869 27.7778 16.8083 27.7272 16.9146 27.6513C16.9652 27.6108 17.031 27.6108 17.0816 27.6513C17.4712 27.9397 19.0093 29.0781 19.3837 29.3564C19.4293 29.3918 19.4546 29.4525 19.4495 29.5183C19.4495 29.5436 19.4444 29.574 19.4444 29.5993C19.4444 29.665 19.409 29.7258 19.3584 29.7511C18.4983 30.2216 11.7385 33.9152 10.8278 34.411C10.7721 34.4414 10.7013 34.4313 10.6557 34.3807C10.6203 34.325 10.5647 34.2846 10.509 34.2542ZM12.0472 27.7778C12.1838 27.7778 12.3103 27.7272 12.4165 27.6361C12.4165 27.6361 12.4165 27.631 12.4216 27.631C12.4266 27.626 12.457 27.6007 12.4722 27.5754C12.4722 27.5754 12.4722 27.5703 12.4772 27.5703C12.4823 27.5653 12.4874 27.5552 12.4975 27.545L12.5025 27.54C12.5025 27.5349 12.5076 27.5299 12.5127 27.5248C12.5379 27.4894 12.5582 27.459 12.5835 27.3983C12.5835 27.3932 12.5885 27.3932 12.5885 27.3882C12.5936 27.3781 12.5987 27.3578 12.6037 27.3578V27.3528C12.6088 27.3477 12.6088 27.3426 12.6088 27.3325C12.6088 27.3275 12.6088 27.3275 12.6088 27.3275C12.6088 27.3224 12.6138 27.3072 12.6189 27.292C12.6189 27.292 12.6189 27.287 12.624 27.2617C12.624 27.2566 12.629 27.2566 12.629 27.2566H15.2803C15.3511 27.2566 15.4119 27.3072 15.427 27.3831C15.4473 27.459 15.4169 27.5349 15.3562 27.5754C14.3443 28.2028 12.1028 29.5993 11.1617 30.1811C11.1061 30.2166 11.0302 30.2064 10.9846 30.1558C10.9391 30.1052 10.9239 30.0243 10.9543 29.9585C11.2427 29.3109 11.7385 28.2079 11.8903 27.8638C11.9156 27.8031 11.9713 27.7677 12.032 27.7727H12.0472V27.7778ZM12.3862 26.7254C12.3862 26.7203 12.3862 26.7203 12.3862 26.7254C12.3862 26.7203 12.3862 26.7254 12.3862 26.7254C12.3912 26.7254 12.3862 26.7254 12.3862 26.7254ZM1.05748 26.6748C1.05748 26.6697 1.06254 26.6697 1.06254 26.6697C1.05748 26.6697 1.05748 26.6697 1.05748 26.6748ZM11.865 26.614C11.8599 26.614 11.865 26.614 11.865 26.614V26.614ZM20.7448 29.999C20.7397 29.9889 20.7397 29.9787 20.7397 29.9686C20.7549 29.9332 20.7751 29.8927 20.7751 29.8877C20.7903 29.8472 20.8055 29.7915 20.8055 29.7814V29.7764C20.8257 29.6903 20.8308 29.5993 20.8207 29.5082C20.8156 29.4778 20.8156 29.4475 20.8055 29.4222C20.7903 29.3564 20.8156 29.2906 20.8612 29.2502C21.3469 28.8302 23.8464 26.6444 24.15 26.3813C24.1702 26.3661 24.1904 26.3611 24.2157 26.3712C24.241 26.3813 24.2562 26.4117 24.2562 26.442C24.2562 27.12 24.2512 34.3149 24.2512 34.411V34.4161C24.2461 34.406 20.9522 30.2621 20.7448 29.999ZM0.0202393 26.3054V26.3003V26.3054ZM4.28051 32.033C4.25015 32.0229 4.23497 31.9925 4.22991 31.9571C4.22991 31.9014 4.21473 31.8255 4.20967 31.8053C4.20967 31.8053 4.20967 31.8002 4.20461 31.8002C4.19955 31.7851 4.19955 31.7699 4.19449 31.7547C4.17932 31.699 4.18944 31.6383 4.22485 31.5928C4.68529 30.9755 7.77171 26.867 8.2625 26.2194C8.29792 26.1688 8.35863 26.1486 8.41429 26.1637C8.42947 26.1688 8.44465 26.1688 8.45983 26.1739C8.51548 26.184 8.56102 26.2244 8.58126 26.2852C8.77353 26.8974 9.77535 30.1002 9.90184 30.4948C9.9069 30.5201 9.9069 30.5454 9.89172 30.5606V30.5657C9.88666 30.5707 9.8816 30.5809 9.87654 30.5859C9.87654 30.5859 9.87654 30.591 9.87148 30.591C9.85631 30.6163 9.84113 30.6466 9.84113 30.6466C9.83101 30.6719 9.81583 30.7073 9.81583 30.7073C9.80571 30.7326 9.79559 30.7731 9.79559 30.7731C9.77029 30.8642 9.77029 30.9704 9.79559 31.0716C9.79559 31.0716 9.80065 31.0919 9.80571 31.1071C9.80571 31.1071 9.81583 31.1324 9.81583 31.1374V31.1425C9.82089 31.1627 9.83101 31.1728 9.84113 31.1931L9.84619 31.2032C9.85631 31.2184 9.86642 31.2386 9.86642 31.2386C9.8816 31.2639 9.87654 31.2538 9.88666 31.269L9.89678 31.2791C9.91196 31.2993 9.9322 31.3246 9.93726 31.3246C9.9575 31.3449 9.97268 31.36 9.99292 31.3752C9.99292 31.3752 10.0233 31.3955 10.0283 31.4005C10.0283 31.4005 10.0334 31.4005 10.0334 31.4056C10.0435 31.4106 10.0486 31.4258 10.0486 31.4359V34.0619C10.0486 34.1277 10.0132 34.1884 9.9575 34.2188C9.87654 34.2542 9.80571 34.3099 9.73993 34.3807C9.69945 34.4262 9.63368 34.4414 9.57802 34.4161C8.88484 34.1075 4.7713 32.2556 4.28051 32.033ZM10.3066 30.3532C10.2813 30.3532 10.256 30.3329 10.251 30.3076C10.1143 29.8725 9.07205 26.5483 8.93544 26.103C8.92532 26.0777 8.93544 26.0423 8.95568 26.0271C8.96074 26.0221 8.97592 26.0069 8.98098 26.0018C8.98098 26.0018 8.98098 26.0018 8.98604 26.0018C9.02145 25.9664 9.06699 25.9563 9.11253 25.9765C9.49707 26.1486 11.2325 26.9379 11.4451 27.0391C11.4552 27.0441 11.4653 27.0593 11.4653 27.0745V27.0795C11.4653 27.0897 11.4653 27.115 11.4653 27.1403C11.4653 27.1504 11.4653 27.1554 11.4704 27.1858C11.4704 27.1909 11.4754 27.2162 11.4754 27.2415C11.4754 27.2415 11.4805 27.2617 11.4805 27.2718C11.4805 27.2718 11.4855 27.3022 11.4906 27.3224C11.4906 27.3224 11.4956 27.3376 11.5058 27.3679L11.5108 27.3831C11.526 27.4185 11.5412 27.4489 11.5564 27.4793C11.5867 27.5299 11.5918 27.5956 11.5665 27.6462C11.3692 28.0915 10.5141 29.999 10.3724 30.3178C10.3572 30.343 10.3319 30.3582 10.3066 30.3532ZM23.9526 25.6729V25.6679V25.6729ZM24.8027 25.339C24.7976 25.339 24.8027 25.339 24.8027 25.339C24.8027 25.3441 24.8027 25.339 24.8027 25.339ZM8.9152 25.0911C8.9152 25.086 8.91014 25.086 8.9152 25.0911C8.91014 25.086 8.9152 25.086 8.9152 25.0911ZM3.81502 31.2943C3.71888 31.2538 3.61263 31.2336 3.51143 31.2437C3.46084 31.2487 3.41024 31.2234 3.38494 31.1728C3.0763 30.6062 1.36612 27.4337 1.09796 26.9379C1.07772 26.9025 1.07772 26.8519 1.10302 26.8164V26.8114L1.11313 26.8013C1.11819 26.7962 1.11819 26.7911 1.13337 26.7709C1.13337 26.7709 1.14349 26.7456 1.14855 26.7405C1.14855 26.7405 1.14855 26.7405 1.14855 26.7355C1.15361 26.7203 1.15867 26.7152 1.17385 26.6849V26.6798C1.17891 26.6697 1.18397 26.6545 1.18397 26.6545C1.18397 26.6545 1.18397 26.6495 1.18903 26.6444C1.18903 26.6393 1.19915 26.6242 1.20421 26.5989V26.5938C1.20421 26.5887 1.20927 26.5736 1.20927 26.5685V26.5634L1.21433 26.5432C1.21433 26.5381 1.21433 26.5432 1.21433 26.528L1.21939 26.5027C1.22445 26.4825 1.22445 26.4774 1.22445 26.4572V26.4521C1.22445 26.442 1.22445 26.4218 1.22445 26.4218V26.3864C1.22445 26.3712 1.22951 26.3813 1.22445 26.3206C1.22445 26.3003 1.21939 26.2801 1.21939 26.2599C1.21939 26.2599 1.21939 26.2548 1.20927 26.2042L1.19915 26.1739C1.19915 26.1739 1.19915 26.1688 1.19409 26.1587V26.1536C1.25987 26.103 2.73224 24.9089 3.11172 24.6003C3.16232 24.5598 3.22809 24.5547 3.27869 24.5902C3.39 24.6661 3.52156 24.7116 3.65817 24.7167H3.67335C3.87573 24.7116 4.068 24.6104 4.19955 24.4485C4.24003 24.403 4.30075 24.3827 4.35641 24.403C4.88767 24.58 7.46812 25.4453 7.89314 25.5869C7.92856 25.597 7.95386 25.6325 7.96397 25.6679C7.96397 25.6679 7.96904 25.6831 7.97409 25.7134C7.97409 25.7134 7.97915 25.7337 7.99433 25.7741C7.99433 25.7741 7.99939 25.7792 7.99939 25.7893C8.00445 25.7994 8.00951 25.8096 8.00951 25.8096C8.00951 25.8096 8.00951 25.8146 8.01457 25.8197C8.01457 25.8197 8.01963 25.8298 8.01963 25.8349C8.02469 25.845 8.01963 25.85 8.01963 25.8551C7.83748 26.103 4.52338 30.5151 3.97693 31.2386C3.94657 31.3044 3.87573 31.3246 3.81502 31.2943ZM4.39688 23.9779C4.39182 23.9779 4.39182 23.9779 4.39688 23.9779C4.39688 23.9273 4.39182 23.8514 4.39182 23.8363C4.39182 23.8312 4.39182 23.8312 4.39182 23.8262C4.38677 23.7857 4.3817 23.7401 4.37158 23.6997C4.35641 23.6288 4.37664 23.558 4.4323 23.5175C4.91803 23.1481 7.10889 21.4683 7.52378 21.1546C7.56426 21.1243 7.6098 21.1192 7.65533 21.1394C7.70087 21.1597 7.73629 21.2052 7.74135 21.2609C7.8223 21.8073 8.22708 24.5294 8.27262 24.8583C8.27768 24.8786 8.26756 24.8988 8.25238 24.9089C8.22708 24.9241 8.23214 24.919 8.20684 24.9393C8.20684 24.9393 8.1866 24.9494 8.1613 24.9798C8.1613 24.9798 8.15118 24.9899 8.14106 25C8.14106 25 8.14107 25 8.13601 25.0051C8.13601 25.0051 8.13601 25.0051 8.13601 25.0101C8.13095 25.0152 8.11577 25.0304 8.10565 25.0455V25.0506C8.10059 25.0557 8.09553 25.0607 8.09553 25.0607C8.09553 25.0658 8.10059 25.0557 8.08035 25.086C8.07529 25.0911 8.08541 25.0759 8.06011 25.1164L8.03481 25.1569C8.02975 25.167 8.02975 25.1619 8.02469 25.1771C8.01963 25.1872 8.00951 25.1923 7.99939 25.1872C7.73629 25.0961 4.5082 24.0184 4.39688 23.9779ZM0.814613 25.7033C0.758956 25.678 0.723538 25.6223 0.718479 25.5566C0.68812 24.8937 0.52621 21.5796 0.465493 20.2641C0.460434 20.1882 0.500911 20.1224 0.561628 20.0971C0.622344 20.0718 0.69318 20.0921 0.733657 20.1528C1.34082 21.018 2.6867 22.9458 2.99029 23.386C3.0257 23.4366 3.03076 23.5023 3.00546 23.563C2.99534 23.5833 2.98523 23.6086 2.98017 23.6339C2.93463 23.7806 2.92451 23.9375 2.94981 24.0893C2.96499 24.155 2.93969 24.2208 2.88909 24.2613C2.56021 24.5244 1.38636 25.4756 1.05748 25.7438C1.01194 25.7843 0.946165 25.7843 0.895568 25.7539C0.875329 25.7337 0.844971 25.7185 0.814613 25.7033ZM0 19.5203C0.0050597 19.5203 0 19.5203 0 19.5203V19.5203ZM0.0151793 18.4578H0.0202393H0.0151793ZM17.2688 27.2667C17.2232 27.2313 17.1979 27.1757 17.203 27.115C17.2131 26.9429 17.1726 26.7608 17.0816 26.6242C17.0158 26.528 16.9298 26.4521 16.8387 26.4015C16.783 26.3762 16.7527 26.3155 16.7527 26.2497V18.053C16.7527 18.0125 16.7729 17.9771 16.8033 17.962C16.8336 17.9468 16.8691 17.9569 16.8944 17.9822C17.4357 18.5691 23.2443 24.8533 23.8261 25.4857C23.8514 25.5161 23.8666 25.5616 23.8565 25.6021C23.8565 25.6072 23.8514 25.6223 23.8514 25.6325V25.6426C23.8514 25.6476 23.8464 25.6729 23.8464 25.678V25.6831C23.8464 25.6982 23.8413 25.7033 23.8413 25.7387V25.7438V25.7691V25.7741C23.8413 25.7994 23.8464 25.8197 23.8464 25.845C23.8464 25.845 23.8514 25.8652 23.8514 25.8804C23.8514 25.8804 23.8565 25.8956 23.8565 25.9107C23.8565 25.9107 23.8616 25.9411 23.8666 25.9613C23.8666 25.9664 23.8818 26.0018 23.8919 26.0322C23.8919 26.0322 23.8919 26.0372 23.897 26.0423C23.902 26.0524 23.9071 26.0575 23.9071 26.0625C23.902 26.0676 21.1647 28.4558 20.6436 28.9112C20.593 28.9516 20.5272 28.9567 20.4766 28.9263C20.4311 28.896 20.3805 28.8707 20.3299 28.8555C20.1275 28.7948 19.9049 28.8403 19.7379 28.9769C19.6924 29.0174 19.6266 29.0174 19.5811 28.982C19.1915 28.6936 17.6381 27.545 17.2688 27.2667ZM16.3479 17.8506C16.3479 17.8557 16.3479 17.8557 16.3479 17.8506V17.8506ZM11.4552 17.6381C11.4552 17.6381 11.4501 17.6381 11.4552 17.6381C11.4501 17.6432 11.4552 17.6381 11.4552 17.6381ZM24.0235 25.1063C23.2848 24.3068 17.4509 17.9923 17.1271 17.6432C17.117 17.6331 17.117 17.6179 17.122 17.6078C17.122 17.6027 17.1322 17.5825 17.1322 17.5724C17.1322 17.5673 17.1322 17.5622 17.1372 17.5622L17.1524 17.5218C17.1524 17.5167 17.1524 17.5268 17.1575 17.4914C17.1575 17.4863 17.1625 17.4813 17.1676 17.4813C17.4459 17.4712 23.9324 17.1828 24.0488 17.1777H24.0538C24.0538 17.1828 24.0589 17.1828 24.064 17.1929C24.064 17.1929 24.0741 17.2131 24.0842 17.2232C24.0842 17.2232 24.1044 17.2485 24.1095 17.2587C24.1095 17.2637 24.1146 17.2637 24.1146 17.2637C24.1247 17.2789 24.1398 17.2991 24.1449 17.2991C24.1651 17.3244 24.1904 17.3447 24.2157 17.3598H24.2208C24.2208 17.3598 24.2208 17.3598 24.2259 17.3649C24.2613 17.3902 24.2815 17.4307 24.2815 17.4813C24.2815 18.2453 24.2663 24.1247 24.2663 24.9848C24.2663 25.0405 24.236 25.0961 24.1854 25.1265C24.1297 25.167 24.064 25.1518 24.0235 25.1063ZM11.4602 17.031C11.4602 17.0259 11.4602 17.031 11.4602 17.031V17.031ZM8.01457 20.0769C7.91844 20.0364 7.81724 20.0364 7.72111 20.0617C7.66545 20.0769 7.60474 20.0567 7.56932 20.0061C7.21008 19.5254 5.4999 17.2435 5.27221 16.9399C5.25703 16.9197 5.25703 16.8944 5.26715 16.8691C5.27221 16.8589 5.28739 16.8488 5.30257 16.8539C5.62639 16.8944 9.43129 17.3902 10.1042 17.4813C10.1599 17.4863 10.2105 17.5319 10.2307 17.5926C10.2358 17.5977 10.2358 17.6078 10.2358 17.6128C10.256 17.6735 10.2408 17.7444 10.2004 17.7899C9.84113 18.1745 8.29286 19.834 8.07529 20.0668C8.05505 20.082 8.03481 20.087 8.01457 20.0769ZM16.358 16.7982C16.358 16.7982 16.3631 16.7982 16.358 16.7982V16.7982ZM4.22485 16.4491V16.444V16.4491ZM5.085 16.1101C5.09006 16.1101 5.085 16.1101 5.085 16.1101V16.1101ZM20.3603 15.2449H20.3704C20.4614 15.2449 20.5475 15.2196 20.6284 15.1791C20.674 15.1538 20.7246 15.1184 20.7347 15.1083C20.7448 15.1032 20.7549 15.0982 20.765 15.1032C20.9269 15.1994 22.3285 16.0241 23.0976 16.4744C23.1583 16.5098 23.1886 16.5857 23.1734 16.6616C23.1583 16.7375 23.1026 16.7932 23.0318 16.7932C21.8276 16.8488 19.0093 16.9702 17.8051 17.0259C17.7393 17.031 17.6735 16.9804 17.6533 16.9045C17.6331 16.8336 17.6584 16.7527 17.7191 16.7122C18.392 16.2315 19.5861 15.3866 19.9049 15.1589C19.9504 15.1235 20.0111 15.1235 20.0567 15.1538C20.1528 15.2145 20.254 15.2449 20.3603 15.2449ZM20.1477 15.0779C20.1528 15.0779 20.1528 15.0779 20.1477 15.0779V15.0779ZM20.1477 15.0729C20.1427 15.0729 20.1427 15.0729 20.1427 15.0729H20.1477ZM11.5665 17.0107C11.5412 16.95 11.5159 16.8893 11.4754 16.8387C11.44 16.783 11.4349 16.7071 11.4653 16.6515C11.7233 16.1607 12.8112 14.1216 13.0237 13.7219C13.0439 13.6814 13.0844 13.6612 13.1249 13.6612C13.135 13.6612 13.1502 13.6612 13.1603 13.6561C13.2058 13.6511 13.2514 13.6713 13.2817 13.7118C13.6561 14.1672 15.8571 16.8589 15.9887 17.0208C15.9937 17.0259 15.9937 17.031 15.9937 17.036C15.9735 17.0816 15.933 17.1119 15.8875 17.1119H11.7082C11.6474 17.1119 11.5918 17.0714 11.5665 17.0107ZM4.02247 23.2038C3.87067 23.1127 3.68852 23.0773 3.52155 23.1178C3.49626 23.1229 3.4659 23.133 3.4406 23.1431C3.37988 23.1684 3.31411 23.1431 3.27363 23.0874C2.87391 22.5207 0.930986 19.7328 0.728598 19.4444C0.718479 19.4293 0.718479 19.4141 0.728598 19.3989C0.728598 19.3938 0.743777 19.3736 0.753896 19.3584C0.769076 19.3331 0.784254 19.2876 0.789314 19.2825V19.2775C0.794374 19.2623 0.799434 19.2572 0.804493 19.2269C0.804493 19.2218 0.814613 19.1864 0.824732 19.1611C0.824732 19.156 0.824732 19.156 0.824732 19.151C0.824732 19.1409 0.829792 19.1257 0.829792 19.1206V19.1156C0.834852 19.0953 0.834851 19.07 0.834851 19.0498V19.0447C0.834851 19.0346 0.834851 19.0093 0.834851 19.0093C0.834851 18.984 0.834851 18.9587 0.834851 18.9537C0.834851 18.9284 0.829792 18.9081 0.824732 18.8828C0.824732 18.8778 0.824732 18.8778 0.824732 18.8727C0.824732 18.8676 0.819673 18.8474 0.819673 18.8423V18.8373C0.814613 18.812 0.809553 18.7867 0.799433 18.7614C0.799433 18.7563 0.794374 18.7411 0.789314 18.731C0.789314 18.726 0.789314 18.726 0.784254 18.7209C0.779194 18.7108 0.769076 18.6855 0.769076 18.6804C0.753897 18.6501 0.743777 18.6298 0.713419 18.5843C0.708359 18.5792 0.68812 18.5539 0.672941 18.5337C0.672941 18.5337 0.672941 18.5286 0.667882 18.5236C0.662822 18.5185 0.662822 18.5135 0.667882 18.5033C0.774135 18.2807 2.58551 14.4455 2.91439 13.7523C2.93969 13.6916 3.0004 13.6561 3.06112 13.6612C3.08136 13.6663 3.1016 13.6663 3.12184 13.6663H3.13196C3.13702 13.6663 3.14714 13.6663 3.1522 13.6663C3.21291 13.6663 3.26857 13.7017 3.29387 13.7624C3.4912 14.2127 4.23497 15.933 4.28557 16.0443C4.28557 16.0494 4.28557 16.0494 4.28557 16.0544C4.28557 16.0544 4.28557 16.0544 4.28051 16.0544C4.28051 16.0595 4.27039 16.0646 4.27039 16.0646C4.25015 16.0899 4.22991 16.1152 4.21474 16.1405C4.20968 16.1506 4.20461 16.1556 4.19449 16.1708V16.1759C4.19449 16.1809 4.18944 16.186 4.18438 16.1961C4.18438 16.2012 4.17932 16.2113 4.17426 16.2113C4.16414 16.2265 4.16414 16.2417 4.14896 16.267C4.1439 16.2821 4.1439 16.2821 4.12872 16.3277C4.12366 16.3378 4.12366 16.3428 4.11354 16.3833C4.10848 16.3985 4.10848 16.3934 4.10342 16.4592V16.4744C4.10342 16.5048 4.10342 16.5351 4.10342 16.5705V16.5958C4.10342 16.611 4.10342 16.611 4.11354 16.6667C4.11354 16.6717 4.12366 16.7071 4.12366 16.7071C4.13378 16.7375 4.13884 16.7679 4.14896 16.7982C4.14896 16.7982 4.15908 16.8185 4.16414 16.8336C4.1692 16.8387 4.15908 16.8286 4.17932 16.864L4.18944 16.8842C4.20968 16.9197 4.23497 16.9551 4.26027 16.9905C4.26027 16.9905 4.26027 16.9905 4.26533 17.0006C4.26533 17.0006 4.28051 17.0158 4.29063 17.0259L4.30075 17.036C4.33111 17.0664 4.36146 17.0917 4.39688 17.117C4.40194 17.122 4.407 17.1271 4.41206 17.1271C4.50314 17.1828 4.60433 17.2131 4.71059 17.2131H4.72071C4.76118 17.2131 4.80166 17.2081 4.84214 17.1979C4.89779 17.1878 4.95345 17.2081 4.98887 17.2536C5.35823 17.7444 7.24044 20.254 7.34669 20.3957C7.35175 20.4007 7.35175 20.4058 7.34669 20.4108C7.33657 20.4361 7.33151 20.4614 7.32645 20.4918V20.4969C7.32645 20.5019 7.32139 20.5171 7.32139 20.5222C7.32139 20.5222 7.32139 20.5222 7.32139 20.5272C7.31633 20.5475 7.31633 20.5677 7.31633 20.5879C7.31633 20.5879 7.31633 20.6082 7.31633 20.6132V20.6183C7.31633 20.6436 7.32139 20.6689 7.32139 20.6942C7.32139 20.6942 7.32645 20.7195 7.32645 20.7245V20.7296C7.33151 20.7549 7.32139 20.7802 7.30115 20.7954C6.99251 21.0281 4.63469 22.8344 4.16414 23.1937C4.13378 23.2291 4.07306 23.2342 4.02247 23.2038ZM16.8741 16.7324C16.7173 16.6262 16.5199 16.611 16.3479 16.6768C16.2922 16.7021 16.2265 16.6818 16.186 16.6313C15.7964 16.1556 13.9597 13.9091 13.6005 13.4689C13.5651 13.4285 13.5549 13.3677 13.5752 13.3121C13.5853 13.2868 13.5904 13.2412 13.5904 13.2412C13.5954 13.2159 13.5954 13.2261 13.6005 13.1755C13.6005 13.1704 13.6005 13.1654 13.6005 13.1603V13.1552C13.6005 13.1451 13.6005 13.1249 13.6005 13.1097C13.6005 13.0996 13.6005 13.0945 13.6005 13.0743C13.6005 13.0692 13.6005 13.0642 13.6005 13.0591V13.054C13.6005 13.049 13.5954 13.0338 13.5954 13.0287V13.0237C13.5954 13.0136 13.5954 13.0085 13.5904 13.0034C13.5802 12.9478 13.5954 12.8871 13.6308 12.8466C13.9951 12.4519 15.7407 10.5647 16.1253 10.1498C16.1658 10.1042 16.2315 10.0891 16.2872 10.1143C16.3732 10.1498 16.4592 10.17 16.5503 10.17C16.5554 10.17 16.5604 10.17 16.5655 10.17C16.6312 10.17 16.697 10.1599 16.7577 10.1396C16.8185 10.1194 16.8792 10.1447 16.9197 10.1953C17.3497 10.7873 19.6873 14.0103 19.8087 14.1824C19.8138 14.1874 19.8138 14.1925 19.8087 14.1975C19.7986 14.2127 19.7986 14.2178 19.7834 14.2532C19.7834 14.2582 19.7784 14.2684 19.7683 14.2987C19.7683 14.2987 19.7632 14.319 19.7581 14.3341C19.7581 14.3341 19.7581 14.3341 19.7581 14.3392C19.7581 14.3443 19.7531 14.3544 19.7531 14.3594V14.3645C19.7531 14.3696 19.748 14.3797 19.748 14.3847C19.743 14.41 19.7379 14.4353 19.7379 14.4404C19.7379 14.4455 19.7328 14.4758 19.7328 14.5011V14.5315V14.5467C19.7328 14.5618 19.7328 14.5719 19.7328 14.5922C19.7328 14.5972 19.7328 14.6276 19.7379 14.6529C19.7379 14.6529 19.743 14.6883 19.748 14.7136C19.748 14.7136 19.7531 14.7237 19.7531 14.7288C19.7531 14.7288 19.7581 14.7389 19.7632 14.7592C19.7632 14.7642 19.7632 14.7642 19.7581 14.7693C19.6468 14.8452 17.2991 16.5149 16.9702 16.7527C16.945 16.7679 16.9197 16.7679 16.8944 16.7527C16.8893 16.7426 16.8842 16.7375 16.8741 16.7324ZM5.34305 16.4289C5.33799 16.4036 5.33293 16.3681 5.33293 16.3631C5.32787 16.3277 5.31775 16.2922 5.30257 16.2568C5.30257 16.2518 5.29245 16.2366 5.28739 16.2214C5.28739 16.2164 5.27727 16.2062 5.27727 16.2012C5.27727 16.1961 5.27221 16.1961 5.27221 16.1911C5.26715 16.186 5.25703 16.1658 5.25703 16.1607C5.25703 16.1556 5.25703 16.1556 5.25703 16.1556C5.23679 16.1202 5.21656 16.0848 5.19126 16.0544C5.19126 16.0544 5.19126 16.0494 5.1862 16.0494C5.1862 16.0443 5.17608 16.0393 5.17608 16.0393C5.15584 16.019 5.1356 15.9988 5.11536 15.9785C5.10018 15.9634 5.07488 15.9431 5.06982 15.9381C5.06982 15.9381 5.06476 15.9381 5.06476 15.933C5.03441 15.9128 5.00405 15.8925 4.96863 15.8774C4.88768 15.8419 4.80672 15.8217 4.72071 15.8217C4.65999 15.8217 4.60939 15.7863 4.58409 15.7256C4.41712 15.336 3.82008 13.9698 3.64805 13.5701C3.62275 13.5094 3.62781 13.4335 3.67335 13.3829C3.69864 13.3526 3.72394 13.3171 3.74924 13.2767C3.85044 13.1097 3.88079 12.8466 3.86561 12.6999C3.86561 12.6948 3.86561 12.6948 3.86561 12.6948C4.01741 12.6189 9.2542 10.0688 9.85631 9.77535C9.89172 9.76017 9.92714 9.76523 9.9575 9.79053C9.9575 9.79053 9.9828 9.81583 10.0081 9.83101H10.0132C10.0941 9.88666 10.1852 9.91702 10.2763 9.91702H10.2864C10.3167 9.91702 10.342 9.91196 10.3673 9.9069C10.423 9.89678 10.4786 9.91702 10.5141 9.96762C10.8379 10.4078 12.3457 12.4722 12.6341 12.8719C12.6644 12.9124 12.6746 12.963 12.6644 13.0186C12.6594 13.0389 12.6594 13.0591 12.6543 13.0692C12.6543 13.0743 12.6543 13.0793 12.6543 13.0844C12.6543 13.1148 12.6543 13.1451 12.6543 13.1755V13.1856C12.6594 13.2362 12.6746 13.2817 12.6897 13.3273C12.6948 13.3424 12.6897 13.3323 12.7049 13.3627C12.7049 13.3627 12.7201 13.388 12.7252 13.3981C12.7252 13.3981 12.7252 13.3981 12.7252 13.4032C12.7353 13.4183 12.7353 13.4386 12.7252 13.4538C12.5784 13.727 11.4046 15.9431 11.1364 16.444C11.1061 16.4997 11.0504 16.5351 10.9897 16.525C10.9391 16.5149 10.8885 16.5149 10.8379 16.525C10.5697 16.5554 10.3319 16.7679 10.2358 17.0461C10.2307 17.0563 10.2206 17.0664 10.2105 17.0613C9.8816 17.0208 5.36835 16.4339 5.34305 16.4289ZM10.7671 9.6438C10.7519 9.62356 10.7519 9.60332 10.7569 9.57802C10.762 9.56284 10.7721 9.55778 10.7822 9.55778H15.7711C15.8116 9.55778 15.847 9.58814 15.8622 9.62862C15.8672 9.6438 15.8723 9.65898 15.8774 9.67416C15.9027 9.73993 15.8875 9.81583 15.8419 9.86136C15.4422 10.2914 13.6966 12.1838 13.3475 12.5632C13.3121 12.6037 13.2615 12.6189 13.2159 12.6088C13.1552 12.5936 13.0895 12.5936 13.0287 12.6088C12.9731 12.624 12.9174 12.5987 12.882 12.5531C12.543 12.0826 10.9694 9.92714 10.7671 9.6438ZM24.1196 16.6009C23.9425 16.4997 21.0585 14.7996 20.9725 14.749C20.9725 14.749 20.9674 14.744 20.9725 14.744C20.9725 14.7389 20.9775 14.7237 20.9775 14.7187C20.9775 14.7187 20.9775 14.7187 20.9775 14.7136C20.9775 14.7086 20.9826 14.6984 20.9826 14.6833C20.9826 14.6833 20.9877 14.6731 20.9877 14.6478C20.9877 14.6478 20.9927 14.6023 20.9927 14.5669C20.9927 14.5669 20.9927 14.5517 20.9927 14.5365V14.5315C20.9927 14.5264 20.9927 14.5163 20.9927 14.5062V14.5011C20.9927 14.491 20.9927 14.4708 20.9927 14.4708C20.9927 14.4455 20.9877 14.4151 20.9877 14.4151C20.9877 14.3999 20.9877 14.3999 20.9826 14.3949C20.9826 14.3949 20.9826 14.3898 20.9775 14.3645C20.9775 14.3645 20.9775 14.3544 20.9725 14.3443C20.9725 14.3443 20.9725 14.3341 20.9624 14.3139C20.9624 14.3139 20.9624 14.2987 20.9421 14.2582L20.9371 14.238C20.932 14.2178 20.9219 14.2026 20.9219 14.1975C20.9219 14.1925 20.9219 14.1925 20.9168 14.1925C20.9118 14.1874 20.9016 14.1672 20.9016 14.1672C20.8966 14.1571 20.8915 14.152 20.8915 14.1469L20.8814 14.1318C20.8713 14.1166 20.8662 14.1115 20.8612 14.1014V14.0963C20.932 13.9698 23.1836 10.0385 23.983 8.64197C24.0184 8.5762 24.0893 8.5509 24.155 8.57114C24.2208 8.59138 24.2613 8.65716 24.2613 8.73305C24.2663 10.5444 24.2765 16.014 24.2765 16.4592C24.2765 16.4795 24.2663 16.4946 24.2562 16.4997C24.2309 16.5149 24.2006 16.5351 24.2006 16.5351C24.1702 16.5554 24.1399 16.5908 24.1348 16.5958C24.1348 16.6009 24.1247 16.6009 24.1196 16.6009ZM24.0184 7.32645C24.0235 7.32645 24.0235 7.32645 24.0184 7.32645V7.32645ZM24.7571 7.04817C24.7571 7.04817 24.7521 7.04817 24.7571 7.04817V7.04817ZM17.2182 9.92714C17.1828 9.87148 17.1726 9.80065 17.203 9.73993C17.2131 9.71969 17.2232 9.69439 17.2334 9.6691C17.2334 9.6691 17.2435 9.6438 17.2485 9.62862C17.2485 9.62356 17.2637 9.58308 17.2688 9.54766C17.289 9.47177 17.289 9.36045 17.289 9.36045C17.2941 9.19348 17.2485 9.03157 17.1676 8.89496C17.1524 8.86966 17.1524 8.83424 17.1676 8.81401C17.4459 8.39911 19.6924 5.01417 20.087 4.42218C20.1224 4.37158 20.173 4.34629 20.2287 4.35641C20.2591 4.36147 20.2844 4.36653 20.3147 4.36653H20.3198C20.4108 4.36653 20.4969 4.34123 20.5778 4.30075C20.593 4.29569 20.6082 4.29569 20.6183 4.30581C20.8662 4.52844 23.5529 6.9065 23.8919 7.20502C23.9122 7.22526 23.9223 7.25056 23.9172 7.28091V7.28597C23.9172 7.29103 23.9122 7.30115 23.9122 7.31127C23.9122 7.31633 23.9122 7.32645 23.9122 7.33657C23.9071 7.35681 23.9071 7.35681 23.9071 7.40235V7.40741V7.43271C23.9071 7.45294 23.9122 7.47318 23.9122 7.49342C23.9122 7.49342 23.9172 7.51872 23.9172 7.52378V7.52884C23.9223 7.54908 23.9273 7.56932 23.9324 7.58956C23.9324 7.58956 23.9375 7.6098 23.9425 7.62498C23.9425 7.62498 23.9526 7.65027 23.9628 7.67051C23.9628 7.67051 23.9729 7.69075 23.9779 7.70593C23.983 7.71605 23.9881 7.72111 24.0032 7.74641C24.0032 7.74641 24.0032 7.74641 24.0083 7.75653C24.0083 7.75653 24.0184 7.76665 24.0184 7.77171C24.0235 7.77677 24.0235 7.78183 24.0184 7.78688C23.8869 8.02469 21.0332 13.0034 20.5981 13.7675C20.5677 13.8231 20.512 13.8535 20.4513 13.8434C20.3653 13.8332 20.2742 13.8383 20.1933 13.8636C20.1376 13.8838 20.0718 13.8585 20.0364 13.8079C19.6367 13.2615 17.6179 10.4736 17.2182 9.92714ZM20.7954 3.79984C20.7954 3.8049 20.7954 3.8049 20.7954 3.79984C20.7954 3.8049 20.7954 3.8049 20.7954 3.79984ZM19.8391 3.62781C19.8391 3.62275 19.8442 3.62275 19.8391 3.62781V3.62275V3.62781C19.8442 3.62275 19.8391 3.62781 19.8391 3.62781ZM20.1326 3.19773C20.1376 3.19773 20.1376 3.19773 20.1326 3.19773V3.19773ZM20.8662 3.96175C20.8612 3.96175 20.8612 3.95669 20.8662 3.96175C20.8662 3.95669 20.8662 3.95669 20.8662 3.95669C20.8662 3.95163 20.8763 3.93139 20.8763 3.93139C20.8814 3.91621 20.8763 3.93139 20.8915 3.88585C20.8915 3.88585 20.8966 3.86561 20.9016 3.85044V3.84538C20.9016 3.84538 20.9016 3.84032 20.9067 3.83526C20.9067 3.8302 20.9118 3.81502 20.9118 3.8049V3.79478C20.9118 3.78972 20.9168 3.76948 20.9168 3.7543C20.9168 3.7543 20.9168 3.73912 20.9168 3.72394C20.9168 3.72394 20.9168 3.72394 20.9168 3.71888V3.67335V3.66829C20.9168 3.66323 20.9168 3.64299 20.9168 3.64299C20.9168 3.61263 20.9269 3.58733 20.9472 3.56709C21.2609 3.33941 23.563 1.66464 24.0184 1.33576C24.064 1.3054 24.1196 1.30034 24.1702 1.32564C24.1904 1.33576 24.2107 1.34588 24.2309 1.356C24.2916 1.3813 24.3321 1.44708 24.3271 1.51791C24.3169 2.28699 24.2765 6.34487 24.2714 6.79012C24.2714 6.81542 24.2562 6.83566 24.241 6.84072C24.2208 6.85084 24.2056 6.86096 24.2056 6.86096C24.1803 6.87108 24.155 6.87108 24.1297 6.85084C23.7756 6.53714 20.9269 4.01741 20.8662 3.96175ZM16.7932 8.56102C16.7628 8.5509 16.7476 8.52054 16.7476 8.49018V1.38636C16.7476 1.32564 16.778 1.26493 16.8286 1.23457C16.8438 1.22951 16.8539 1.21939 16.8691 1.20927C16.8741 1.20421 16.8842 1.20421 16.8893 1.20927C17.0613 1.35094 19.237 3.1269 19.6721 3.48108C19.7126 3.51649 19.7379 3.57721 19.7328 3.63287C19.7278 3.67335 19.7278 3.71382 19.7328 3.7543C19.7328 3.7543 19.7328 3.76948 19.7328 3.78466C19.7328 3.79478 19.7379 3.8049 19.7379 3.82514C19.743 3.84032 19.7379 3.84032 19.7531 3.88585C19.7531 3.89597 19.7581 3.90103 19.7581 3.91115C19.7581 3.91115 19.7632 3.93139 19.7683 3.94657C19.7683 3.94657 19.7784 3.96681 19.7834 3.97693C19.7834 3.97693 19.7936 3.99717 19.7986 4.00729L19.8087 4.02247C19.8239 4.05282 19.8189 4.08824 19.8037 4.11354C19.5102 4.55373 17.1625 8.08541 16.8691 8.53066C16.8539 8.56102 16.8235 8.57114 16.7932 8.56102ZM16.353 1.13843C16.353 1.14349 16.353 1.14349 16.353 1.13843C16.353 1.14349 16.353 1.14349 16.353 1.13843ZM24.9899 0.941105C24.9949 0.936046 24.9949 0.936046 24.9899 0.941105V0.941105ZM20.2085 3.04594C20.1579 3.05606 20.1073 3.08136 20.0921 3.08642H20.087C20.0668 3.09654 20.0465 3.11172 20.0415 3.11172C20.0415 3.11172 20.0364 3.11172 20.0364 3.11678C20.0111 3.13196 19.9858 3.14714 19.9858 3.1522C19.9656 3.16738 19.9352 3.16738 19.915 3.1522C19.6013 2.89415 17.3598 1.0676 17.1372 0.885448C17.1271 0.875329 17.122 0.86015 17.1271 0.844971C17.1271 0.844971 17.1271 0.839911 17.1322 0.834851C17.1372 0.824732 17.1423 0.814613 17.1524 0.814613H23.73C23.7705 0.814613 23.8008 0.844971 23.816 0.885448C23.8312 0.930986 23.816 0.981582 23.7806 1.00688C23.3657 1.31046 21.0281 3.01052 20.76 3.20279C20.7448 3.21291 20.7246 3.21291 20.7144 3.19773C20.5728 3.06618 20.3855 3.01052 20.2085 3.04594ZM16.0696 0.566687C16.0696 0.561627 16.0696 0.561628 16.0696 0.561628V0.566687ZM25 0.359239C24.9949 0.35418 24.9949 0.35418 25 0.359239V0.359239ZM16.3681 0.131553C16.3732 0.131553 16.3732 0.131553 16.3732 0.131553C16.3732 0.131553 16.3732 0.131553 16.3681 0.131553ZM24.3524 0C24.3574 0 24.3574 0 24.3524 0H24.3574H24.3524C24.3574 0 24.3524 0 24.3524 0Z" fill="#2B2A29"/>
</svg>
