<svg width="74" height="63" viewBox="0 0 74 63" fill="none" xmlns="http://www.w3.org/2000/svg">
    <g>
        <path d="M17.4121 31.492C17.0176 30.0597 16.8258 28.4958 17.3864 27.1232C18.4882 24.4192 21.8747 23.5909 24.7839 23.332C25.7138 23.2466 26.6677 23.1802 27.526 22.807C28.9314 22.1937 29.86 20.8644 30.8099 19.6652C32.6131 17.3932 34.7456 15.3798 37.1219 13.7151C39.1495 12.2942 41.9234 11.1262 43.993 12.4846C44.8362 13.0375 45.4006 13.933 45.8402 14.8403C47.5829 18.428 48.2656 23.125 51.874 24.8208C53.2714 21.7289 55.2513 18.904 57.6763 16.5335C59.0827 15.1589 60.8876 13.8654 62.8347 14.1392C64.4834 14.3706 65.8114 15.7497 66.3422 17.3297C66.873 18.9097 66.7142 20.6437 66.2823 22.2498C64.5442 28.7383 58.8481 33.2856 53.3716 37.1774C46.0835 42.3613 38.5629 47.2582 30.5991 51.3308C27.4878 52.9197 24.2409 54.4065 20.7685 54.8008C17.2961 55.1951 13.5247 54.3486 11.0908 51.8438C9.82353 50.5405 8.95835 48.6764 9.37356 46.9026C10.0399 44.0781 13.4305 42.9014 16.3279 42.7308C19.2253 42.5602 22.4003 42.8259 24.7451 41.1126C22.2668 37.7145 18.6105 35.7675 17.4121 31.492Z"
              fill="#63331D"/>
        <path d="M57.4264 16.8053C59.4852 16.7011 61.3528 18.8131 60.9949 20.8437C60.3573 20.013 59.3828 19.4532 58.3495 19.3176C59.6041 20.681 59.7384 22.7951 59.1611 24.559C58.5838 26.3228 57.4146 27.8142 56.2633 29.271C58.1536 28.1179 59.7021 26.4032 60.6509 24.4038C61.0266 26.171 60.273 27.9917 59.2898 29.5121C57.7234 31.9358 55.5332 33.9579 52.9888 35.3284C58.4798 33.8187 63.0922 29.4394 64.883 24.0346C65.3974 22.4845 65.6907 20.8245 65.435 19.2156C65.1808 17.6 64.3214 16.0375 62.9308 15.1832C61.5362 14.3315 59.5979 14.3285 58.3535 15.3847C57.8592 15.8038 57.4974 16.3557 57.1598 16.9094C56.6786 17.6945 56.5108 17.8265 56.0989 18.6473C55.7212 19.4056 55.152 20.4899 54.3064 20.4745"
              fill="#482310"/>
        <path d="M48.2187 21.2076C40.3473 27.9864 31.5425 33.683 22.135 38.0883C22.7381 38.9989 23.3452 39.9069 23.9483 40.8176C24.0945 41.0338 24.246 41.2581 24.482 41.3641C24.718 41.4702 24.9879 41.4332 25.2403 41.396C35.8867 39.7761 45.7438 33.517 51.7375 24.5752C50.967 23.9923 50.2905 23.2792 49.7559 22.4739"
              fill="#FFEC00"/>
        <path d="M13.1511 43.7398C11.573 44.5575 10.9261 46.6489 11.4676 48.343C12.0065 50.033 13.5209 51.2909 15.2029 51.8753C16.8823 52.4556 18.7122 52.4425 20.4734 52.2263C27.6513 51.3439 38.5686 45.0934 44.5697 41.051C52.3774 35.7889 55.3574 33.8646 61.5781 26.7982C63.0932 25.0763 64.7646 21.7142 64.9325 19.4268C65.1005 17.1393 63.3374 14.5848 61.0496 14.7801C62.9686 14.2654 65.0838 15.3925 66.0781 17.1094C67.0723 18.8263 67.0774 20.9898 66.4865 22.8835C65.8982 24.7813 64.7697 26.4595 63.5699 28.0457C59.7931 33.0636 54.7017 37.0337 49.5215 40.5832C45.7184 43.192 42.1048 45.7642 38.0151 47.8964C34.778 49.5843 31.5327 51.2775 28.1465 52.6474C23.8848 54.3727 19.1842 55.5821 14.7089 54.5302C11.8737 53.8651 8.9508 51.7875 8.89975 48.87C8.87048 47.0507 10.0247 45.35 11.5486 44.3601C13.0764 43.3676 14.924 42.9915 16.7418 42.8711"
              fill="#FFEC00"/>
        <path opacity="0.32"
              d="M14.7084 43.316C13.707 45.1191 14.7819 47.7229 16.7629 48.2975C16.2982 47.3603 16.2258 46.2375 16.5579 45.2495C17.2317 46.9787 19.0704 48.026 20.905 48.2865C22.7397 48.5469 24.5982 48.1522 26.4112 47.7582C24.5405 48.9504 22.3239 49.5835 20.1085 49.5531C21.5308 50.6692 23.4958 50.7931 25.2919 50.5772C28.1591 50.2361 30.9413 49.1606 33.287 47.4755C29.5165 51.7401 23.5506 53.9559 17.9111 53.1877C16.2918 52.966 14.6754 52.5004 13.3408 51.5636C12.0061 50.6268 10.9753 49.1642 10.8244 47.5391C10.6735 45.914 11.5227 44.1695 13.0211 43.5131C13.6139 43.2547 14.2678 43.17 14.9159 43.1121C15.8325 43.0238 16.7539 42.9785 17.6735 42.9747C18.5207 42.966 19.5368 43.6429 19.8917 42.8764"
              fill="#FFFBE2"/>
        <path opacity="0.32"
              d="M22.8541 38.0419C21.2052 37.5974 20.0346 36.1679 19.0297 34.7806C17.7372 33.0039 16.4736 30.9433 16.7783 28.7687C17.0859 26.5808 18.9585 24.8859 21.0216 24.0875C23.078 23.2876 25.3323 23.2005 27.537 23.0015C29.7351 22.8012 32.0114 22.4463 33.8424 21.2107C32.0173 22.8458 29.8034 24.0419 27.4341 24.6705C25.6416 25.1492 23.6295 25.3785 22.3481 26.7238C21.0219 28.1155 20.9467 30.3773 21.7422 32.1253C22.5404 33.8774 24.0514 35.201 25.6376 36.2856"
              fill="#FFFBE2"/>
        <path d="M45.2757 23.1886C44.8002 21.6937 44.3208 20.184 43.5544 18.809C42.7879 17.434 41.717 16.1934 40.3166 15.4837C38.25 14.4403 35.5734 14.7556 33.8037 16.2452C35.2918 14.7657 36.8868 13.3088 38.8474 12.5655C40.8079 11.8221 43.2287 11.938 44.7626 13.3678C45.5262 14.0819 46.0067 15.0434 46.4673 15.9832C47.2866 17.6524 48.1058 19.3216 48.9251 20.9909"
              fill="#482310"/>
        <path d="M25.9116 36.6896C26.4941 38.092 27.743 39.2516 29.2359 39.5093C31.1542 39.8364 32.9921 38.7002 34.9039 38.3342C31.6208 39.9425 28.0693 41.0047 24.4393 41.4669C24.1186 40.3612 23.5049 39.3365 22.6848 38.5265C24.9729 37.1784 27.2268 35.7777 29.4505 34.3216"
              fill="#FFFBE2"/>
        <path d="M45.0799 23.8632C46.1189 24.3005 47.2149 24.7988 47.8228 25.7524C48.6346 27.0287 48.2936 28.7659 47.4476 30.0186C49.0147 28.5453 50.4137 26.8931 51.6079 25.1031C51.6638 25.0206 51.7226 24.9248 51.7131 24.8215C51.7008 24.7315 51.6427 24.6598 51.5845 24.5881C50.6764 23.5183 49.7616 22.4471 48.8534 21.3773C48.9661 21.3733 49.0854 21.3707 49.198 21.3667"
              fill="#BA9C1E"/>
        <path d="M66.2553 15.6169C65.1113 14.2105 63.3778 13.5559 61.5908 13.7946C57.402 14.3547 55.2106 18.3888 53.1122 21.5902C52.5019 22.5226 51.893 23.4483 51.2827 24.3807C51.1025 24.6534 51.2854 25.059 51.5505 25.1922C51.869 25.3542 52.1818 25.197 52.362 24.9244C53.5198 23.1581 54.6589 21.3808 55.8379 19.6295C56.8817 18.087 58.0772 16.5208 59.7513 15.6292C60.9924 14.9671 62.5977 14.6792 63.9177 15.274C65.5056 15.9886 66.3119 17.7355 66.3779 19.3984C66.4459 21.1177 65.8455 22.7928 65.0928 24.3133C64.281 25.9644 63.2254 27.48 62.0331 28.8826C59.5385 31.8113 56.52 34.2793 53.4986 36.6454C50.1916 39.2373 46.7541 41.6548 43.1981 43.8898C39.6259 46.1355 35.9352 48.1987 32.1503 50.0638C28.6392 51.7913 24.9488 53.6066 21.0325 54.1337C17.9109 54.5536 14.2641 54.1737 11.8209 51.9919C10.8195 51.0979 9.971 49.8627 9.84921 48.4953C9.71572 46.9857 10.5619 45.7156 11.8124 44.9437C14.8561 43.0644 18.6424 44.0049 21.9632 43.1732C22.8156 42.9595 23.6401 42.6141 24.3791 42.1283C25.0289 41.7004 24.3708 40.6872 23.7209 41.1151C22.1375 42.1552 20.2201 42.3173 18.3813 42.4054C16.5465 42.4908 14.7098 42.5198 12.9495 43.1101C11.3143 43.6536 9.70299 44.6773 9.01046 46.3258C8.37043 47.8423 8.61228 49.4832 9.39168 50.8959C11.1001 53.9873 14.7506 55.3042 18.1023 55.4781C22.1171 55.6881 25.9839 54.2597 29.577 52.6229C33.6042 50.7848 37.5321 48.7231 41.3351 46.4601C45.1421 44.1945 48.823 41.7169 52.3587 39.0513C55.6658 36.5573 58.9796 33.9493 61.8251 30.931C63.1732 29.5021 64.4034 27.9538 65.4114 26.2674C66.362 24.6702 67.1794 22.8945 67.4708 21.0454C67.7694 19.163 67.4786 17.1274 66.2553 15.6169Z"
              fill="black"/>
        <path d="M52.5673 24.0073C52.3472 23.8103 51.901 23.7889 51.7142 24.0601C49.2654 27.6448 46.2144 30.8082 42.7359 33.4021C39.2411 36.0065 35.339 38.0458 31.1983 39.3986C28.885 40.1579 26.506 40.7006 24.0962 41.0097C23.7726 41.0527 23.5043 41.2962 23.5216 41.6422C23.5367 41.9494 23.8306 42.2598 24.1542 42.2167C28.6313 41.6481 32.9675 40.3124 37.0099 38.3203C41.001 36.3558 44.6635 33.7347 47.8294 30.6062C49.6036 28.8486 51.2136 26.9268 52.6269 24.8619C52.803 24.5919 52.8312 24.245 52.5673 24.0073Z"
              fill="black"/>
        <path d="M52.1273 24.1549C50.9506 23.1155 49.9449 21.9132 49.1176 20.5776C48.9585 20.3237 48.5284 20.194 48.282 20.4001C45.1394 23.0409 41.8817 25.549 38.5226 27.9097C35.1634 30.2705 31.7029 32.4839 28.1516 34.5488C26.1512 35.7099 24.1192 36.8224 22.0624 37.8877C21.682 38.0829 21.7457 38.589 21.9879 38.8466C22.8153 39.721 23.4909 40.7344 24.0155 41.817C24.1554 42.1123 24.604 42.1551 24.8512 41.9945C25.1551 41.7971 25.1686 41.4541 25.0287 41.1589C24.5774 40.2246 24.0126 39.364 23.3491 38.5733C26.7765 36.779 30.1292 34.8431 33.3977 32.7775C36.8688 30.5803 40.2452 28.2372 43.5119 25.752C45.1947 24.4745 46.8403 23.1577 48.4623 21.8044C49.2697 23.003 50.2312 24.1015 51.3136 25.0581C51.9026 25.5745 52.7096 24.6699 52.1273 24.1549Z"
              fill="black"/>
        <path d="M33.9726 20.7457C32.1432 22.0724 28.8161 22.1937 26.6266 22.3539C24.4652 22.5132 22.1922 22.5893 20.1802 23.493C18.3811 24.2986 16.7773 25.6977 16.246 27.6565C15.7061 29.6553 16.4939 31.7196 17.4059 33.4784C18.4817 35.5515 20.0164 37.7011 22.2305 38.6256C22.5319 38.7525 22.8967 38.5155 23.0532 38.2064C23.1918 37.9319 23.2154 37.7553 22.9113 37.6243C21.096 36.8614 19.6976 35.0901 18.7471 33.414C17.9002 31.924 17.0427 30.0895 17.3384 28.3357C17.6241 26.6287 19.008 25.3436 20.5162 24.6578C22.3882 23.8048 24.4924 23.7172 26.5142 23.5737C28.9653 23.3992 31.677 22.8363 33.7468 21.1345C33.9946 20.9216 34.2376 20.5505 33.9726 20.7457Z"
              fill="black"/>
        <path d="M44.2702 12.1662C43.5017 11.7549 42.6338 11.581 41.7707 11.5654C39.8825 11.5241 38.0188 12.2392 36.3968 13.1488C34.4941 14.2119 32.8974 15.6929 31.5926 17.4279C30.3014 19.1485 28.8757 21.4692 26.8364 22.402C26.5386 22.5379 26.555 22.6252 26.6608 22.9656C26.7513 23.2468 27.121 23.4965 27.4188 23.3607C29.299 22.5024 30.5499 20.9061 31.7315 19.2741C32.3107 18.4713 32.8873 17.6645 33.5569 16.9299C34.2496 16.1687 35.0191 15.4902 35.8665 14.9052C37.337 13.8865 39.1126 13.027 40.8563 12.8279C41.6549 12.7356 42.3664 12.7574 43.133 12.9971C43.356 13.0655 43.8051 13.2866 43.998 13.4149C44.3849 13.6823 44.7105 14.0239 44.9795 14.4024C45.6452 15.3473 46.0367 16.4646 46.4744 17.5287C46.9565 18.6967 47.4359 19.8605 47.9179 21.0284C48.0431 21.3275 48.3463 21.5281 48.6759 21.4235C48.9679 21.3318 49.1921 20.9672 49.071 20.6655C48.6333 19.6013 48.1915 18.5398 47.7538 17.4756C47.3278 16.4384 46.9331 15.3694 46.3871 14.387C45.8874 13.4669 45.1959 12.6598 44.2702 12.1662Z"
              fill="black"/>
    </g>
</svg>
