<svg xmlns="http://www.w3.org/2000/svg" width="100px" height="100px" viewBox="0 0 512.000000 227.000000" preserveAspectRatio="xMidYMid meet">
<g transform="translate(0.000000,227.000000) scale(0.100000,-0.100000)"
fill="#000000" stroke="none">
<path d="M1100 2235 c-7 -8 -20 -15 -30 -15 -23 0 -32 -11 -21 -24 10 -12
-243 -332 -573 -726 -104 -124 -228 -271 -275 -328 -73 -87 -88 -100 -98 -87
-24 34 -23 -8 2 -100 14 -52 28 -102 31 -110 4 -9 0 -15 -10 -15 -9 0 -16 -4
-16 -10 0 -5 7 -10 16 -10 9 0 18 -9 21 -20 7 -26 23 -26 30 0 5 20 14 20 498
20 l493 0 -5 -353 c-3 -193 -10 -357 -14 -363 -6 -8 1 -13 22 -18 40 -8 247
-8 286 0 l29 6 -7 71 c-4 40 -8 200 -9 357 l-1 285 133 6 c74 3 138 2 145 -3
6 -5 14 -5 16 -1 9 15 68 306 63 310 -8 8 -26 -7 -26 -21 0 -10 -40 -14 -162
-19 -89 -4 -163 -5 -165 -3 -2 2 0 258 3 570 7 540 8 566 26 566 10 0 18 5 18
10 0 6 -11 10 -24 10 -13 0 -27 6 -30 13 -5 10 -7 10 -12 0 -4 -10 -47 -13
-165 -13 -135 0 -159 2 -159 15 0 8 -4 15 -9 15 -5 0 -14 -7 -21 -15z m350
-605 c0 -500 -2 -570 -15 -570 -21 0 -19 -20 3 -22 23 -2 17 -2 198 6 l161 7
-24 -108 c-13 -59 -25 -108 -26 -109 -1 -1 -64 -4 -140 -7 -114 -4 -139 -3
-144 9 -19 51 -23 -21 -16 -361 l6 -375 -138 0 -138 0 7 227 c5 196 8 431 7
526 -1 33 -18 36 -23 5 l-3 -23 -497 -3 c-467 -2 -497 -1 -502 15 -2 10 -14
51 -26 92 -21 72 -21 73 -2 95 21 23 768 914 891 1063 42 50 85 93 96 96 11 2
89 5 173 6 l152 1 0 -570z"/>
<path d="M1193 2024 c-4 -10 -176 -219 -382 -464 -207 -245 -388 -460 -403
-478 -15 -17 -34 -32 -43 -32 -9 0 -15 -6 -12 -12 3 -10 90 -12 406 -9 293 2
405 0 415 -8 10 -8 16 -9 21 -1 3 5 17 10 31 10 13 0 24 5 24 10 0 6 -11 10
-25 10 -30 0 -28 -59 -15 540 9 409 6 493 -17 434z m-8 -506 c-4 -249 -10
-456 -14 -461 -4 -4 -172 -6 -373 -5 l-366 3 157 196 c151 190 592 719 599
719 2 0 1 -204 -3 -452z"/>
<path d="M1986 2209 c-3 -8 -10 -59 -16 -114 -6 -55 -13 -113 -16 -128 -5 -24
-3 -28 13 -26 38 5 263 -35 398 -72 79 -21 205 -68 263 -98 63 -32 139 -107
158 -156 55 -144 -97 -341 -436 -566 -174 -116 -360 -221 -360 -204 0 8 -4 15
-9 15 -4 0 -16 -39 -25 -87 -37 -193 -37 -193 -53 -193 -14 0 -14 -3 2 -20 12
-14 22 -17 30 -10 7 6 264 12 659 16 526 6 647 5 644 -6 -2 -7 3 -15 10 -17 6
-3 12 2 12 11 0 9 5 16 10 16 6 0 8 11 4 25 -3 13 2 70 11 125 17 102 15 127
-8 97 -11 -14 -67 -17 -502 -26 -269 -5 -491 -8 -492 -7 -2 1 50 39 115 84
379 264 627 503 715 690 63 134 46 261 -46 356 -131 133 -365 216 -777 275
-210 30 -299 36 -304 20z m244 -35 c409 -51 684 -141 809 -263 67 -66 86 -110
86 -201 0 -64 -5 -85 -33 -141 -98 -202 -334 -427 -750 -713 -69 -48 -110 -82
-104 -88 5 -5 209 -5 518 1 280 5 510 8 511 7 3 -3 -25 -177 -29 -181 -2 -2
-292 -5 -646 -7 -554 -3 -642 -1 -642 11 0 8 7 57 17 108 l16 93 81 46 c484
277 737 506 754 684 12 125 -85 227 -293 310 -100 40 -276 85 -416 106 -59 9
-112 20 -118 23 -9 6 -9 33 -1 107 6 54 13 105 16 112 4 14 4 14 224 -14z"/>
<path d="M4058 2194 c-428 -77 -731 -463 -705 -897 13 -219 97 -406 252 -561
76 -76 123 -110 220 -159 208 -104 437 -120 659 -46 130 43 234 108 336 209
101 101 165 205 211 341 29 84 33 110 37 234 3 118 1 154 -17 228 -107 448
-541 733 -993 651z m380 -43 c313 -91 541 -345 597 -666 19 -110 19 -170 0
-280 -78 -447 -515 -762 -951 -684 -352 62 -609 306 -690 654 -23 100 -15 313
16 410 92 289 316 501 607 575 106 27 313 22 421 -9z"/>
<path d="M4128 1677 c-93 -27 -172 -94 -216 -187 -21 -45 -26 -70 -27 -135 0
-71 4 -88 33 -147 35 -72 82 -117 162 -159 64 -33 194 -34 264 -1 80 37 132
85 168 160 29 59 33 76 33 147 0 91 -26 162 -84 228 -72 82 -224 124 -333 94z
m219 -45 c155 -80 217 -256 144 -407 -35 -74 -78 -116 -155 -151 -115 -53
-268 -18 -352 80 -52 61 -77 137 -72 221 9 133 88 234 218 276 46 15 171 4
217 -19z"/>
<path d="M4180 1493 c-124 -25 -151 -211 -39 -269 99 -51 214 17 214 126 0 93
-84 161 -175 143z m86 -39 c87 -41 84 -168 -4 -210 -63 -30 -140 4 -162 72
-14 42 -8 71 21 108 37 47 87 57 145 30z"/>
</g>
</svg>
